# xmcd
#
# Track frame offsets:
#	150
#	14335
#	32139
#	45376
#	64427
#	81600
#	97979
#	110437
#	121567
#	142584
#	157611
#	172404
#
# Disc length: 2498 seconds
#
# Revision: 1
# Processed by: cddbd v1.5.2PL0 Copyright (c) Steve Scherf et al.
# Submitted via: audiograbber 1.83.01
#
DISCID=9209c00c
DTITLE=Rio The Voice Of Elvis - Earthrise - Check It Out
DYEAR=2017
DGENRE=Country
TTITLE0=Baby´s Love
TTITLE1=Check It Out
TTITLE2=Elusive Moonbeam
TTITLE3=Hot Nights In Memphis
TTITLE4=I Wanna Be Free
TTITLE5=Long Days
TTITLE6=My Happiness
TTITLE7=She`s The One
TTITLE8=Some Day, Some Way
TTITLE9=Tenderfooting
TTITLE10=Trust And Believe
TTITLE11=Who Are You
EXTD=
EXTT0=
EXTT1=
EXTT2=
EXTT3=
EXTT4=
EXTT5=
EXTT6=
EXTT7=
EXTT8=
EXTT9=
EXTT10=
EXTT11=
PLAYORDER=
